<mxfile host="app.diagrams.net" modified="2023-06-24T05:37:17.141Z" agent="Mozilla/5.0 (Windows NT 10.0; Win64; x64) AppleWebKit/537.36 (KHTML, like Gecko) Chrome/114.0.0.0 Safari/537.36" etag="-QIqioZhVRJ24W0Pz1Rk" version="21.5.0" type="github">
  <diagram name="Page-1" id="39JB0amiFSYJWChzQjqy">
    <mxGraphModel dx="794" dy="462" grid="1" gridSize="10" guides="1" tooltips="1" connect="1" arrows="1" fold="1" page="1" pageScale="1" pageWidth="850" pageHeight="1100" math="0" shadow="0">
      <root>
        <mxCell id="0" />
        <mxCell id="1" parent="0" />
        <mxCell id="ZfpYhFQpD1PajfxBCC-y-7" style="edgeStyle=orthogonalEdgeStyle;rounded=0;orthogonalLoop=1;jettySize=auto;html=1;exitX=0.5;exitY=1;exitDx=0;exitDy=0;entryX=0.5;entryY=0;entryDx=0;entryDy=0;" edge="1" parent="1" source="ZfpYhFQpD1PajfxBCC-y-1" target="ZfpYhFQpD1PajfxBCC-y-5">
          <mxGeometry relative="1" as="geometry" />
        </mxCell>
        <mxCell id="ZfpYhFQpD1PajfxBCC-y-8" style="edgeStyle=orthogonalEdgeStyle;rounded=0;orthogonalLoop=1;jettySize=auto;html=1;exitX=0;exitY=0.5;exitDx=0;exitDy=0;entryX=0.5;entryY=0;entryDx=0;entryDy=0;" edge="1" parent="1" source="ZfpYhFQpD1PajfxBCC-y-1" target="ZfpYhFQpD1PajfxBCC-y-4">
          <mxGeometry relative="1" as="geometry" />
        </mxCell>
        <mxCell id="ZfpYhFQpD1PajfxBCC-y-9" style="edgeStyle=orthogonalEdgeStyle;rounded=0;orthogonalLoop=1;jettySize=auto;html=1;exitX=1;exitY=0.5;exitDx=0;exitDy=0;entryX=0.5;entryY=0;entryDx=0;entryDy=0;" edge="1" parent="1" source="ZfpYhFQpD1PajfxBCC-y-1" target="ZfpYhFQpD1PajfxBCC-y-6">
          <mxGeometry relative="1" as="geometry" />
        </mxCell>
        <mxCell id="ZfpYhFQpD1PajfxBCC-y-1" value="Scaffold" style="rounded=0;whiteSpace=wrap;html=1;" vertex="1" parent="1">
          <mxGeometry x="350" y="140" width="120" height="60" as="geometry" />
        </mxCell>
        <mxCell id="ZfpYhFQpD1PajfxBCC-y-3" style="edgeStyle=orthogonalEdgeStyle;rounded=0;orthogonalLoop=1;jettySize=auto;html=1;exitX=0.5;exitY=1;exitDx=0;exitDy=0;entryX=0.5;entryY=0;entryDx=0;entryDy=0;" edge="1" parent="1" source="ZfpYhFQpD1PajfxBCC-y-2" target="ZfpYhFQpD1PajfxBCC-y-1">
          <mxGeometry relative="1" as="geometry" />
        </mxCell>
        <mxCell id="ZfpYhFQpD1PajfxBCC-y-2" value="Material App" style="rounded=0;whiteSpace=wrap;html=1;" vertex="1" parent="1">
          <mxGeometry x="350" y="30" width="120" height="60" as="geometry" />
        </mxCell>
        <mxCell id="ZfpYhFQpD1PajfxBCC-y-4" value="backgroundcolor" style="rounded=0;whiteSpace=wrap;html=1;" vertex="1" parent="1">
          <mxGeometry x="193" y="240" width="120" height="60" as="geometry" />
        </mxCell>
        <mxCell id="ZfpYhFQpD1PajfxBCC-y-12" style="edgeStyle=orthogonalEdgeStyle;rounded=0;orthogonalLoop=1;jettySize=auto;html=1;exitX=0.5;exitY=1;exitDx=0;exitDy=0;entryX=0.5;entryY=0;entryDx=0;entryDy=0;" edge="1" parent="1" source="ZfpYhFQpD1PajfxBCC-y-5" target="ZfpYhFQpD1PajfxBCC-y-10">
          <mxGeometry relative="1" as="geometry" />
        </mxCell>
        <mxCell id="ZfpYhFQpD1PajfxBCC-y-13" style="edgeStyle=orthogonalEdgeStyle;rounded=0;orthogonalLoop=1;jettySize=auto;html=1;entryX=0.561;entryY=-0.011;entryDx=0;entryDy=0;entryPerimeter=0;" edge="1" parent="1" source="ZfpYhFQpD1PajfxBCC-y-5" target="ZfpYhFQpD1PajfxBCC-y-11">
          <mxGeometry relative="1" as="geometry" />
        </mxCell>
        <mxCell id="ZfpYhFQpD1PajfxBCC-y-5" value="appbar" style="rounded=0;whiteSpace=wrap;html=1;" vertex="1" parent="1">
          <mxGeometry x="350" y="240" width="120" height="60" as="geometry" />
        </mxCell>
        <mxCell id="ZfpYhFQpD1PajfxBCC-y-22" style="edgeStyle=orthogonalEdgeStyle;rounded=0;orthogonalLoop=1;jettySize=auto;html=1;exitX=0.5;exitY=1;exitDx=0;exitDy=0;entryX=0.411;entryY=0.033;entryDx=0;entryDy=0;entryPerimeter=0;" edge="1" parent="1" source="ZfpYhFQpD1PajfxBCC-y-6" target="ZfpYhFQpD1PajfxBCC-y-20">
          <mxGeometry relative="1" as="geometry" />
        </mxCell>
        <mxCell id="ZfpYhFQpD1PajfxBCC-y-6" value="body" style="rounded=0;whiteSpace=wrap;html=1;" vertex="1" parent="1">
          <mxGeometry x="630" y="240" width="120" height="60" as="geometry" />
        </mxCell>
        <mxCell id="ZfpYhFQpD1PajfxBCC-y-10" value="backgroundColor" style="rounded=0;whiteSpace=wrap;html=1;" vertex="1" parent="1">
          <mxGeometry x="240" y="350" width="120" height="60" as="geometry" />
        </mxCell>
        <mxCell id="ZfpYhFQpD1PajfxBCC-y-15" value="" style="edgeStyle=orthogonalEdgeStyle;rounded=0;orthogonalLoop=1;jettySize=auto;html=1;" edge="1" parent="1" source="ZfpYhFQpD1PajfxBCC-y-11" target="ZfpYhFQpD1PajfxBCC-y-14">
          <mxGeometry relative="1" as="geometry" />
        </mxCell>
        <mxCell id="ZfpYhFQpD1PajfxBCC-y-11" value="title" style="rounded=0;whiteSpace=wrap;html=1;" vertex="1" parent="1">
          <mxGeometry x="420" y="350" width="120" height="60" as="geometry" />
        </mxCell>
        <mxCell id="ZfpYhFQpD1PajfxBCC-y-14" value="Text" style="rounded=0;whiteSpace=wrap;html=1;" vertex="1" parent="1">
          <mxGeometry x="420" y="450" width="120" height="60" as="geometry" />
        </mxCell>
        <mxCell id="ZfpYhFQpD1PajfxBCC-y-25" style="edgeStyle=orthogonalEdgeStyle;rounded=0;orthogonalLoop=1;jettySize=auto;html=1;exitX=0.5;exitY=1;exitDx=0;exitDy=0;entryX=0.5;entryY=0;entryDx=0;entryDy=0;" edge="1" parent="1" source="ZfpYhFQpD1PajfxBCC-y-16" target="ZfpYhFQpD1PajfxBCC-y-24">
          <mxGeometry relative="1" as="geometry" />
        </mxCell>
        <mxCell id="ZfpYhFQpD1PajfxBCC-y-16" value="Image" style="rounded=0;whiteSpace=wrap;html=1;" vertex="1" parent="1">
          <mxGeometry x="640" y="460" width="120" height="60" as="geometry" />
        </mxCell>
        <mxCell id="ZfpYhFQpD1PajfxBCC-y-24" value="NetworkImage" style="rounded=0;whiteSpace=wrap;html=1;" vertex="1" parent="1">
          <mxGeometry x="640" y="560" width="120" height="60" as="geometry" />
        </mxCell>
        <mxCell id="ZfpYhFQpD1PajfxBCC-y-23" style="edgeStyle=orthogonalEdgeStyle;rounded=0;orthogonalLoop=1;jettySize=auto;html=1;exitX=0.5;exitY=1;exitDx=0;exitDy=0;entryX=0.5;entryY=0;entryDx=0;entryDy=0;" edge="1" parent="1" source="ZfpYhFQpD1PajfxBCC-y-20" target="ZfpYhFQpD1PajfxBCC-y-16">
          <mxGeometry relative="1" as="geometry" />
        </mxCell>
        <mxCell id="ZfpYhFQpD1PajfxBCC-y-20" value="Center" style="rounded=0;whiteSpace=wrap;html=1;" vertex="1" parent="1">
          <mxGeometry x="640" y="360" width="120" height="60" as="geometry" />
        </mxCell>
        <mxCell id="ZfpYhFQpD1PajfxBCC-y-26" value="I am Rich App" style="text;html=1;strokeColor=#FF3399;fillColor=none;align=center;verticalAlign=middle;whiteSpace=wrap;rounded=0;fontColor=#FF3399;fontSize=20;" vertex="1" parent="1">
          <mxGeometry x="40" y="90" width="170" height="60" as="geometry" />
        </mxCell>
      </root>
    </mxGraphModel>
  </diagram>
</mxfile>
